<svg width="106" height="106" viewBox="0 0 106 106" fill="none" xmlns="http://www.w3.org/2000/svg">
<g filter="url(#filter0_i_168_217)">
<circle cx="52.7859" cy="52.7859" r="52.7859" fill="#E7E7E7"/>
</g>
<g clip-path="url(#clip0_168_217)">
<path d="M70.0762 78.7303C69.922 79.6352 69.7496 79.771 68.7157 79.9158C62.1712 80.7718 55.5678 81.0956 48.9707 80.8841C44.7227 80.7861 40.4835 80.4508 36.273 79.8796C32.149 79.4021 28.0984 78.4266 24.2102 76.9746C22.5357 76.4058 21.0193 75.4508 19.7841 74.1873C19.4524 73.868 19.1895 73.4846 19.0113 73.0605C18.8331 72.6364 18.7433 72.1805 18.7476 71.7206C18.7518 71.2608 18.8499 70.8066 19.036 70.3858C19.222 69.9651 19.492 69.5865 19.8295 69.2733C20.7415 68.3398 21.8296 67.5955 23.0311 67.0833C25.3596 66.0454 27.7918 65.2566 30.2869 64.7304C30.7223 64.6309 30.7767 64.468 30.7495 64.0698C30.4139 59.2191 30.1055 54.3595 29.77 49.5088C29.4344 44.6582 29.0897 39.9795 28.7451 35.2194C28.6 33.2194 28.5365 31.2104 28.3097 29.2285C28.1011 27.4728 28.9718 26.4593 30.3595 25.681C32.4131 24.6317 34.6253 23.9255 36.9079 23.5905C43.0018 22.5225 49.1901 22.0858 55.374 22.2874C58.9932 22.3624 62.6041 22.6647 66.1852 23.1923C69.1849 23.5113 72.1114 24.3216 74.8469 25.5905C75.2568 25.8024 75.6429 26.0572 75.9987 26.3507C76.3699 26.61 76.666 26.9623 76.8571 27.3723C77.0482 27.7822 77.1275 28.2352 77.0871 28.6855C76.9601 30.0701 76.9057 31.4547 76.7969 32.8393C76.807 32.9775 76.7881 33.1163 76.7414 33.2469C76.6946 33.3774 76.6211 33.4967 76.5255 33.5972C76.4299 33.6977 76.3143 33.7772 76.1861 33.8306C76.0579 33.884 75.9199 33.9101 75.7811 33.9072C75.0736 33.7714 74.729 33.4094 74.7652 32.7669C74.8559 31.4547 74.9557 30.1425 75.0827 28.8303C75.1212 28.6153 75.0932 28.3936 75.0025 28.1948C74.9118 27.996 74.7626 27.8294 74.5748 27.7172C73.6045 27.1071 72.5462 26.6493 71.4366 26.3597C66.6951 25.1307 61.8233 24.4714 56.9249 24.3959C53.6235 24.2693 50.3131 24.2783 47.0026 24.4774C44.0611 24.6109 41.1297 24.9131 38.223 25.3824C36.5488 25.6123 34.9019 26.0094 33.3072 26.5679C32.3677 26.8076 31.4796 27.2154 30.686 27.7715C30.5462 27.8408 30.4322 27.9527 30.3604 28.091C30.2887 28.2293 30.2629 28.3868 30.2869 28.5407C30.3732 29.2403 30.4186 29.9444 30.423 30.6493C30.5862 32.8755 30.7676 35.1017 30.9218 37.328C31.0307 38.9026 31.0942 40.4863 31.2121 42.0609C31.4116 44.8754 31.6474 47.6989 31.8469 50.5133C31.9649 52.1785 32.0283 53.8436 32.1463 55.5088C32.1463 55.8527 32.1463 56.2689 32.5907 56.4137C33.4631 56.7952 34.3759 57.0775 35.3116 57.2554C36.1617 57.5285 37.0321 57.7342 37.9146 57.8707C38.8216 58.0789 38.9758 58.2418 39.0665 59.1015C38.6765 59.8798 38.3591 60.0065 37.4702 59.8436C36.8571 59.6757 36.2327 59.5517 35.6018 59.4725L32.4365 58.5676C32.4284 58.6881 32.4284 58.809 32.4365 58.9296C32.5725 61.0562 32.7176 63.1829 32.8537 65.2643C32.8651 65.4567 32.9285 65.6423 33.0371 65.8016C33.1456 65.961 33.2954 66.088 33.4704 66.1693C34.2997 66.667 35.2028 67.0305 36.146 67.2462C38.3069 67.851 40.516 68.2688 42.7488 68.4951C46.2118 68.9197 49.6995 69.1102 53.1882 69.0652C57.6407 69.1162 62.0885 68.7587 66.4754 67.9973C68.304 67.7168 70.0802 67.1646 71.745 66.3594C72.0057 66.2409 72.2252 66.0477 72.3754 65.8043C72.5256 65.561 72.5998 65.2785 72.5885 64.9928C72.5885 63.8526 72.7336 62.7123 72.8152 61.5721C72.8697 60.5947 72.9241 59.6264 72.9876 58.5766C69.6242 59.6762 66.1406 60.3689 62.6117 60.6399C60.3896 60.8752 58.1675 60.9748 55.9454 61.0562C51.5756 61.1969 47.2012 61.0609 42.8486 60.649C42.699 60.6526 42.5501 60.6266 42.4106 60.5725C42.2711 60.5184 42.1437 60.4373 42.0357 60.3338C41.9278 60.2303 41.8415 60.1065 41.7817 59.9696C41.722 59.8326 41.69 59.6852 41.6877 59.5359C41.7167 59.3842 41.776 59.24 41.8622 59.1117C41.9483 58.9835 42.0594 58.8738 42.1889 58.7894C42.3184 58.7049 42.4637 58.6474 42.616 58.6201C42.7683 58.5929 42.9245 58.5966 43.0754 58.6309L45.1161 58.7757C48.2983 59.0396 51.4923 59.1362 54.6847 59.0653C58.633 59.0217 62.5732 58.6981 66.4754 58.097C68.5428 57.8034 70.5735 57.2938 72.5341 56.5766C72.7038 56.5351 72.8552 56.4391 72.965 56.3034C73.0747 56.1677 73.1369 55.9998 73.1417 55.8255C73.1962 54.9658 73.2687 54.1151 73.3231 53.2645C73.4683 51.002 73.5952 48.7396 73.7494 46.4862C73.949 43.5722 74.1757 40.6673 74.3843 37.7533C74.4387 36.9479 74.738 36.6221 75.5543 36.5587C75.838 36.6215 76.0851 36.7939 76.2415 37.0382C76.3979 37.2825 76.4509 37.5787 76.3887 37.8619C76.1227 41.6386 75.8627 45.4154 75.6087 49.1921L75.0373 57.7621C74.9013 59.8707 74.7652 61.9793 74.602 64.0969C74.602 64.5042 74.602 64.658 75.0736 64.7576C77.5685 65.2807 80.0007 66.0664 82.3295 67.1014C83.2259 67.5204 84.0718 68.0395 84.8509 68.6489C85.6254 69.2881 86.2193 70.1178 86.5741 71.0561V72.5131C85.8213 74.4769 84.1978 75.5448 82.4111 76.4136C79.6579 77.6295 76.7725 78.5224 73.8129 79.0742C73.6888 79.112 73.558 79.1228 73.4293 79.1059C73.3007 79.089 73.1772 79.0448 73.0671 78.9761C72.9571 78.9075 72.8631 78.8161 72.7914 78.7081C72.7198 78.6001 72.6723 78.4781 72.652 78.3502C72.652 77.4452 72.8787 77.2099 73.695 77.0199C74.8287 76.7574 75.9715 76.5131 77.0871 76.2054C79.2554 75.6894 81.3217 74.8146 83.2002 73.6172C84.9416 72.4045 85.0141 71.2462 83.2909 69.9973C83.1837 69.9207 83.0716 69.8512 82.9553 69.7892C80.4067 68.1602 77.5134 67.4544 74.6383 66.7304C74.5454 66.6936 74.443 66.6878 74.3466 66.7139C74.2501 66.74 74.1647 66.7966 74.1031 66.8752C72.8969 68.4498 71.0829 68.9747 69.3052 69.4453C64.6736 70.5394 59.9339 71.1131 55.1745 71.1557C52.5533 71.2462 49.9231 71.1557 47.3019 71.029C45.6603 70.9294 44.0096 70.8027 42.377 70.6037C39.5327 70.3004 36.7292 69.6937 34.0146 68.7937C33.1441 68.4869 32.3538 67.989 31.7018 67.3367C31.6179 67.1921 31.5056 67.066 31.3716 66.9658C31.2376 66.8656 31.0846 66.7935 30.922 66.7537C30.7593 66.714 30.5903 66.7075 30.4251 66.7346C30.2598 66.7617 30.1018 66.8218 29.9604 66.9114C29.8737 66.9316 29.7859 66.9467 29.6974 66.9566C27.0837 67.4721 24.5814 68.4432 22.3055 69.8254C20.3555 71.1738 20.292 72.1693 21.9427 73.4453C24.1692 74.9874 26.7082 76.0223 29.38 76.4769C29.4975 76.5358 29.6187 76.5872 29.7428 76.6307C32.5716 77.2776 35.4325 77.7761 38.3137 78.1239C41.3974 78.504 44.4872 78.7484 47.5831 78.857C50.2224 78.9384 52.8707 78.9927 55.5191 78.9203C58.1675 78.8479 60.7524 78.7122 63.3736 78.504C65.1875 78.3683 66.9108 78.133 68.6794 77.943C68.9689 77.8719 69.2747 77.9138 69.5343 78.0602C69.7939 78.2065 69.9877 78.4462 70.0762 78.7303Z" fill="#0B0A08"/>
<path d="M33.3435 26.595C34.9382 26.0366 36.5851 25.6394 38.2593 25.4095C41.1661 24.9403 44.0974 24.6381 47.0389 24.5046C50.3494 24.3055 53.6599 24.2964 56.9613 24.4231C61.8596 24.4986 66.7314 25.1579 71.473 26.3869C72.5683 26.6714 73.6142 27.1199 74.5748 27.7172C74.7626 27.8294 74.9118 27.996 75.0025 28.1948C75.0932 28.3936 75.1212 28.6153 75.0827 28.8303C74.9558 30.1425 74.856 31.4547 74.7653 32.7669C74.7653 33.4095 75.0737 33.7714 75.7811 33.9072C75.6392 34.7806 75.5785 35.6652 75.5997 36.5497C74.7834 36.613 74.4841 36.9388 74.4297 37.7443C74.2211 40.6583 73.9944 43.5632 73.7948 46.4772C73.6406 48.7396 73.5137 51.002 73.3685 53.2554C73.3141 54.1061 73.2416 54.9568 73.1871 55.8165C73.1822 55.9908 73.1201 56.1587 73.0104 56.2944C72.9006 56.4301 72.7492 56.5261 72.5795 56.5676C70.6189 57.2848 68.5882 57.7943 66.5208 58.088C62.6186 58.6891 58.6784 59.0127 54.7301 59.0563C51.5377 59.1272 48.3437 59.0305 45.1615 58.7667L43.1208 58.6219C42.9699 58.5875 42.8137 58.5839 42.6614 58.6111C42.5091 58.6383 42.3638 58.6959 42.2343 58.7803C42.1048 58.8648 41.9937 58.9744 41.9075 59.1027C41.8214 59.231 41.7621 59.3752 41.7331 59.5269L39.121 59.1558C39.0303 58.2508 38.8489 58.1332 37.9691 57.9251C37.0866 57.7886 36.2162 57.5828 35.3661 57.3097C35.3613 55.8877 35.2705 54.4673 35.094 53.0563C34.9851 51.183 34.831 49.3007 34.704 47.4274C34.5407 44.803 34.3623 42.1846 34.1689 39.5723C34.0328 37.69 33.924 35.8167 33.7789 33.9434C33.5793 31.4909 33.4796 29.0475 33.3435 26.595Z" fill="#666666"/>
<path d="M34.0146 68.7847C36.7292 69.6846 39.5327 70.2914 42.377 70.5946C44.0096 70.7937 45.6603 70.9204 47.3019 71.02C49.9231 71.1829 52.5533 71.2372 55.1745 71.1467C59.9501 71.0985 64.7053 70.5157 69.3506 69.4091C71.1645 68.9385 72.9785 68.4136 74.1485 66.839C74.2101 66.7604 74.2954 66.7038 74.3919 66.6777C74.4884 66.6516 74.5907 66.6574 74.6836 66.6942C77.5678 67.4182 80.452 68.1241 83.0006 69.753C83.1169 69.815 83.229 69.8845 83.3362 69.9611C85.0141 71.2281 84.9869 72.3865 83.2455 73.581C81.367 74.7784 79.3007 75.6532 77.1325 76.1692C76.0169 76.4769 74.8741 76.7213 73.7404 76.9837C72.9241 77.1737 72.7064 77.4452 72.6973 78.314L70.0762 78.7122C69.9915 78.4188 69.795 78.1702 69.5288 78.0197C69.2627 77.8691 68.948 77.8286 68.6522 77.9068C66.8382 78.0968 65.1241 78.3321 63.3464 78.4679C60.7252 78.676 58.1131 78.8027 55.4919 78.8841C52.8708 78.9656 50.1952 78.8841 47.5558 78.8208C44.4661 78.7122 41.3763 78.4679 38.2865 78.0878C35.4143 77.736 32.5625 77.2345 29.7428 76.5855C29.6187 76.542 29.4975 76.4906 29.38 76.4317C29.1149 76.0733 28.8107 75.7455 28.473 75.4543C28.0728 75.0734 27.817 74.566 27.7493 74.0183C27.6815 73.4706 27.8058 72.9164 28.1011 72.4498C28.754 71.4923 29.6574 70.7317 30.7132 70.2507C31.7653 69.6535 32.9172 69.2824 34.0146 68.7847Z" fill="#666666"/>
<path d="M39.0756 59.1649L41.6877 59.5359C41.69 59.6852 41.722 59.8326 41.7817 59.9696C41.8415 60.1065 41.9278 60.2303 42.0357 60.3338C42.1437 60.4373 42.2711 60.5184 42.4106 60.5725C42.5501 60.6266 42.699 60.6526 42.8486 60.649C47.2042 61.0613 51.5816 61.1973 55.9545 61.0562C58.1766 60.9748 60.3987 60.8753 62.6208 60.64C66.1466 60.3682 69.6271 59.6755 72.9876 58.5766C72.9241 59.6264 72.8697 60.5947 72.8153 61.5721C72.7336 62.7123 72.6157 63.8526 72.5885 64.9929C72.5998 65.2785 72.5257 65.561 72.3754 65.8043C72.2252 66.0477 72.0057 66.2409 71.745 66.3594C70.0803 67.1647 68.304 67.7168 66.4755 67.9974C62.0878 68.7836 57.6369 69.1653 53.1791 69.1376C49.6904 69.1826 46.2027 68.9922 42.7398 68.5675C40.507 68.3412 38.2979 67.9234 36.137 67.3186C36.0418 66.6259 35.9963 65.9273 36.0009 65.2282C35.8286 63.3368 35.6653 61.4363 35.62 59.5359C36.2508 59.615 36.8752 59.739 37.4884 59.9069C38.3681 60.0879 38.7219 59.9431 39.0756 59.1649Z" fill="#F3A32B"/>
<path d="M33.3434 26.595C33.4795 29.0475 33.5793 31.4909 33.7697 33.9434C33.9148 35.8619 34.0237 37.6719 34.1869 39.5723C34.3804 42.1846 34.5588 44.803 34.722 47.4274C34.849 49.3007 35.0032 51.183 35.1121 53.0563C35.2768 54.4711 35.3555 55.8945 35.3479 57.3187C34.4121 57.1409 33.4994 56.8586 32.6269 56.4771C32.1734 56.2961 32.2006 55.8798 32.1825 55.5721C32.0646 53.907 32.0011 52.2418 31.8832 50.5767C31.6837 47.7623 31.4479 44.9388 31.2483 42.1243C31.1304 40.5497 31.0669 38.966 30.9581 37.3913C30.8039 35.1651 30.6225 32.9389 30.4592 30.7126C30.4549 30.0077 30.4094 29.3037 30.3232 28.6041C30.2992 28.4502 30.3249 28.2927 30.3967 28.1543C30.4684 28.016 30.5825 27.9041 30.7223 27.8348C31.5132 27.266 32.4014 26.8458 33.3434 26.595Z" fill="#555556"/>
<path d="M34.0147 68.7847C32.9173 69.2824 31.7654 69.6896 30.7133 70.2417C29.6419 70.7221 28.7252 71.4896 28.0649 72.4588C27.7696 72.9254 27.6453 73.4797 27.713 74.0274C27.7808 74.5751 28.0366 75.0824 28.4368 75.4633C28.7745 75.7545 29.0787 76.0823 29.3438 76.4407C26.672 75.9862 24.133 74.9512 21.9065 73.4091C20.2558 72.1693 20.3193 71.1738 22.2693 69.7892C24.5446 68.4039 27.0469 67.4297 29.6612 66.9114C29.7497 66.9015 29.8375 66.8864 29.9242 66.8661C30.0656 66.7766 30.2236 66.7164 30.3889 66.6893C30.5541 66.6623 30.7231 66.6688 30.8858 66.7085C31.0484 66.7482 31.2013 66.8203 31.3354 66.9205C31.4694 67.0207 31.5817 67.1469 31.6656 67.2915C32.3243 67.9614 33.1278 68.4722 34.0147 68.7847Z" fill="#555556"/>
<path d="M35.6109 59.5359C35.6563 61.4363 35.8195 63.3368 35.9919 65.2282C35.9902 65.9275 36.0387 66.6262 36.137 67.3186C35.1937 67.1029 34.2907 66.7395 33.4614 66.2417C33.2863 66.1604 33.1366 66.0334 33.028 65.8741C32.9194 65.7147 32.8561 65.5291 32.8447 65.3368C32.7086 63.2101 32.5635 61.0834 32.4274 59.002C32.4194 58.8814 32.4194 58.7605 32.4274 58.64L35.6109 59.5359Z" fill="#EB9023"/>
</g>
<defs>
<filter id="filter0_i_168_217" x="0" y="0" width="106.572" height="106.572" filterUnits="userSpaceOnUse" color-interpolation-filters="sRGB">
<feFlood flood-opacity="0" result="BackgroundImageFix"/>
<feBlend mode="normal" in="SourceGraphic" in2="BackgroundImageFix" result="shape"/>
<feColorMatrix in="SourceAlpha" type="matrix" values="0 0 0 0 0 0 0 0 0 0 0 0 0 0 0 0 0 0 127 0" result="hardAlpha"/>
<feMorphology radius="3" operator="erode" in="SourceAlpha" result="effect1_innerShadow_168_217"/>
<feOffset dx="1" dy="1"/>
<feGaussianBlur stdDeviation="2.5"/>
<feComposite in2="hardAlpha" operator="arithmetic" k2="-1" k3="1"/>
<feColorMatrix type="matrix" values="0 0 0 0 0 0 0 0 0 0 0 0 0 0 0 0 0 0 0.4 0"/>
<feBlend mode="normal" in2="shape" result="effect1_innerShadow_168_217"/>
</filter>
<clipPath id="clip0_168_217">
<rect width="67.8512" height="58.651" fill="white" transform="translate(18.7683 22.2874)"/>
</clipPath>
</defs>
</svg>
