<svg width="106" height="106" viewBox="0 0 106 106" fill="none" xmlns="http://www.w3.org/2000/svg">
<g filter="url(#filter0_i_168_251)">
<circle cx="52.7859" cy="52.7859" r="52.7859" fill="#E7E7E7"/>
</g>
<g clip-path="url(#clip0_168_251)">
<path d="M69.9623 79.9033C69.8085 80.8083 69.6365 80.944 68.6049 81.0888C62.0749 81.9448 55.4862 82.2686 48.9037 82.0571C44.6651 81.9592 40.4353 81.6238 36.2341 81.0526C32.1193 80.5751 28.0777 79.5996 24.1981 78.1477C22.5273 77.5788 21.0142 76.6238 19.7818 75.3604C19.4509 75.041 19.1885 74.6576 19.0107 74.2335C18.8329 73.8094 18.7433 73.3535 18.7476 72.8936C18.7518 72.4338 18.8497 71.9796 19.0353 71.5588C19.2209 71.1381 19.4903 70.7596 19.8271 70.4464C20.737 69.5128 21.8227 68.7685 23.0216 68.2564C25.3449 67.2184 27.7717 66.4297 30.2614 65.9034C30.6957 65.8039 30.75 65.641 30.7229 65.2428C30.388 60.3922 30.0804 55.5325 29.7455 50.6819C29.4107 45.8312 29.0668 41.1525 28.7229 36.3924C28.5781 34.3924 28.5148 32.3834 28.2885 30.4015C28.0804 28.6459 28.9491 27.6323 30.3338 26.854C32.3828 25.8048 34.59 25.0986 36.8676 24.7636C42.948 23.6955 49.1226 23.2588 55.2928 23.4604C58.904 23.5355 62.5068 23.8377 66.08 24.3654C69.0731 24.6843 71.993 25.4946 74.7225 26.7635C75.1315 26.9754 75.5167 27.2302 75.8718 27.5237C76.2422 27.783 76.5376 28.1354 76.7283 28.5453C76.9189 28.9552 76.9981 29.4082 76.9577 29.8585C76.8311 31.2431 76.7767 32.6277 76.6682 34.0123C76.6783 34.1506 76.6594 34.2894 76.6128 34.4199C76.5661 34.5504 76.4928 34.6697 76.3974 34.7703C76.3019 34.8708 76.1866 34.9503 76.0587 35.0036C75.9308 35.057 75.7932 35.0831 75.6546 35.0802C74.9487 34.9445 74.6048 34.5825 74.641 33.9399C74.7315 32.6277 74.8311 31.3155 74.9578 30.0033C74.9961 29.7883 74.9682 29.5666 74.8777 29.3678C74.7872 29.169 74.6384 29.0025 74.451 28.8902C73.4829 28.2801 72.4269 27.8223 71.3198 27.5328C66.5887 26.3037 61.7278 25.6445 56.8403 25.569C53.5462 25.4423 50.2431 25.4513 46.9399 25.6504C44.005 25.784 41.0801 26.0861 38.1798 26.5554C36.5093 26.7853 34.866 27.1825 33.2749 27.7409C32.3375 27.9806 31.4514 28.3884 30.6595 28.9445C30.5201 29.0138 30.4063 29.1257 30.3347 29.264C30.2631 29.4023 30.2374 29.5598 30.2614 29.7137C30.3474 30.4134 30.3927 31.1174 30.3971 31.8223C30.56 34.0485 30.741 36.2748 30.8948 38.501C31.0034 40.0756 31.0668 41.6593 31.1844 43.234C31.3835 46.0484 31.6188 48.8719 31.8179 51.6864C31.9355 53.3515 31.9989 55.0167 32.1165 56.6818C32.1165 57.0257 32.1165 57.442 32.56 57.5868C33.4305 57.9683 34.3412 58.2506 35.2749 58.4284C36.1231 58.7015 36.9916 58.9073 37.8721 59.0438C38.7771 59.2519 38.931 59.4148 39.0215 60.2745C38.6323 61.0528 38.3156 61.1795 37.4287 61.0166C36.8169 60.8487 36.1939 60.7247 35.5645 60.6456L32.4061 59.7406C32.3981 59.8611 32.3981 59.9821 32.4061 60.1026C32.5419 62.2293 32.6867 64.3559 32.8224 66.4374C32.8338 66.6297 32.897 66.8154 33.0054 66.9747C33.1137 67.134 33.2631 67.261 33.4378 67.3423C34.2652 67.8401 35.1663 68.2035 36.1075 68.4192C38.2636 69.024 40.4678 69.4418 42.6956 69.6681C46.1509 70.0928 49.6309 70.2833 53.1118 70.2382C57.5545 70.2892 61.9924 69.9318 66.3696 69.1704C68.1941 68.8898 69.9664 68.3377 71.6275 67.5324C71.8876 67.414 72.1066 67.2207 72.2565 66.9774C72.4064 66.734 72.4804 66.4515 72.4691 66.1659C72.4691 65.0256 72.6139 63.8854 72.6953 62.7451C72.7496 61.7677 72.8039 60.7994 72.8673 59.7496C69.5113 60.8492 66.0355 61.542 62.5144 61.813C60.2973 62.0483 58.0801 62.1478 55.8629 62.2293C51.5028 62.3699 47.1381 62.2339 42.7952 61.822C42.6459 61.8256 42.4973 61.7996 42.3581 61.7455C42.2189 61.6914 42.0918 61.6103 41.9841 61.5068C41.8764 61.4033 41.7903 61.2795 41.7307 61.1426C41.6711 61.0056 41.6392 60.8582 41.6368 60.7089C41.6658 60.5573 41.725 60.413 41.8109 60.2848C41.8968 60.1565 42.0077 60.0469 42.1369 59.9624C42.2662 59.8779 42.4111 59.8204 42.563 59.7932C42.715 59.7659 42.8709 59.7696 43.0214 59.8039L45.0576 59.9487C48.2328 60.2126 51.4197 60.3093 54.605 60.2383C58.5445 60.1947 62.476 59.8711 66.3696 59.27C68.4324 58.9764 70.4586 58.4668 72.4148 57.7497C72.5842 57.7081 72.7352 57.6121 72.8447 57.4764C72.9543 57.3408 73.0162 57.1729 73.0211 56.9985C73.0754 56.1388 73.1478 55.2881 73.2021 54.4375C73.3469 52.1751 73.4736 49.9126 73.6275 47.6593C73.8266 44.7453 74.0528 41.8403 74.2609 38.9263C74.3152 38.1209 74.6139 37.7951 75.4283 37.7318C75.7114 37.7945 75.9579 37.967 76.114 38.2112C76.2701 38.4555 76.3229 38.7517 76.2609 39.0349C75.9955 42.8116 75.736 46.5884 75.4826 50.3651L74.9125 58.9352C74.7768 61.0438 74.641 63.1523 74.4781 65.27C74.4781 65.6772 74.4781 65.831 74.9487 65.9306C77.438 66.4537 79.8649 67.2394 82.1885 68.2745C83.0829 68.6934 83.9269 69.2126 84.7043 69.8219C85.4771 70.4611 86.0697 71.2909 86.4237 72.2292V73.6862C85.6726 75.6499 84.0527 76.7178 82.2699 77.5866C79.5228 78.8025 76.6439 79.6954 73.6908 80.2472C73.567 80.285 73.4365 80.2959 73.3081 80.279C73.1797 80.262 73.0565 80.2178 72.9467 80.1492C72.8369 80.0805 72.7431 79.9891 72.6716 79.8812C72.6001 79.7732 72.5527 79.6511 72.5324 79.5232C72.5324 78.6182 72.7587 78.383 73.5732 78.1929C74.7044 77.9305 75.8446 77.6861 76.9577 77.3784C79.1212 76.8625 81.1829 75.9876 83.0572 74.7902C84.7948 73.5776 84.8672 72.4192 83.1477 71.1704C83.0408 71.0937 82.9289 71.0242 82.8129 70.9622C80.2699 69.3333 77.3831 68.6274 74.5143 67.9034C74.4216 67.8666 74.3195 67.8608 74.2233 67.8869C74.127 67.9131 74.0418 67.9696 73.9804 68.0482C72.7768 69.6229 70.9669 70.1477 69.1931 70.6183C64.5718 71.7124 59.8426 72.2861 55.0937 72.3287C52.4783 72.4192 49.8539 72.3287 47.2386 72.202C45.6006 72.1025 43.9535 71.9758 42.3246 71.7767C39.4866 71.4735 36.6893 70.8667 33.9808 69.9667C33.1122 69.6599 32.3236 69.162 31.6731 68.5097C31.5894 68.3652 31.4773 68.239 31.3436 68.1388C31.2099 68.0386 31.0573 67.9665 30.895 67.9268C30.7327 67.887 30.564 67.8805 30.3992 67.9076C30.2343 67.9347 30.0766 67.9948 29.9356 68.0844C29.849 68.1046 29.7614 68.1197 29.6731 68.1297C27.0652 68.6452 24.5685 69.6163 22.2976 70.9984C20.3519 72.3468 20.2886 73.3423 21.9356 74.6183C24.1572 76.1604 26.6905 77.1954 29.3564 77.6499C29.4737 77.7088 29.5946 77.7602 29.7184 77.8038C32.541 78.4507 35.3955 78.9491 38.2703 79.297C41.3472 79.6771 44.4301 79.9214 47.5191 80.03C50.1526 80.1114 52.7951 80.1657 55.4376 80.0933C58.0801 80.021 60.6593 79.8852 63.2746 79.6771C65.0846 79.5413 66.804 79.306 68.5687 79.116C68.8576 79.0449 69.1627 79.0869 69.4217 79.2332C69.6807 79.3795 69.8741 79.6192 69.9623 79.9033Z" fill="#0B0A08"/>
<path d="M33.3112 27.768C34.9023 27.2096 36.5455 26.8124 38.2161 26.5825C41.1164 26.1133 44.0412 25.8111 46.9762 25.6776C50.2793 25.4785 53.5825 25.4694 56.8765 25.5961C61.764 25.6716 66.625 26.3309 71.356 27.5599C72.449 27.8444 73.4925 28.2929 74.451 28.8902C74.6384 29.0025 74.7873 29.169 74.8778 29.3678C74.9683 29.5666 74.9962 29.7883 74.9578 30.0033C74.8311 31.3155 74.7316 32.6277 74.6411 33.9399C74.6411 34.5825 74.9488 34.9444 75.6547 35.0802C75.5131 35.9536 75.4525 36.8382 75.4737 37.7227C74.6592 37.7861 74.3605 38.1118 74.3062 38.9173C74.0981 41.8313 73.8719 44.7362 73.6728 47.6502C73.5189 49.9126 73.3922 52.1751 73.2474 54.4284C73.1931 55.2791 73.1207 56.1298 73.0664 56.9895C73.0616 57.1638 72.9996 57.3317 72.8901 57.4674C72.7805 57.6031 72.6295 57.6991 72.4601 57.7406C70.5039 58.4578 68.4777 58.9674 66.4149 59.261C62.5213 59.8621 58.5898 60.1857 54.6503 60.2293C51.465 60.3002 48.2781 60.2035 45.1029 59.9397L43.0667 59.7949C42.9162 59.7605 42.7603 59.7569 42.6084 59.7841C42.4564 59.8113 42.3115 59.8689 42.1822 59.9533C42.053 60.0378 41.9421 60.1474 41.8562 60.2757C41.7703 60.404 41.7111 60.5482 41.6821 60.6999L39.0758 60.3288C38.9853 59.4239 38.8043 59.3062 37.9265 59.0981C37.0459 58.9616 36.1775 58.7558 35.3292 58.4827C35.3245 57.0607 35.2338 55.6404 35.0577 54.2293C34.9492 52.356 34.7953 50.4737 34.6686 48.6004C34.5057 45.976 34.3277 43.3576 34.1347 40.7453C33.9989 38.863 33.8903 36.9897 33.7455 35.1164C33.5464 32.6639 33.4469 30.2205 33.3112 27.768Z" fill="#0AD11E"/>
<path d="M33.9808 69.9577C36.6894 70.8576 39.4866 71.4644 42.3246 71.7676C43.9536 71.9667 45.6006 72.0934 47.2386 72.193C49.854 72.3559 52.4784 72.4102 55.0937 72.3197C59.8588 72.2715 64.6034 71.6887 69.2384 70.5821C71.0483 70.1115 72.8583 69.5867 74.0257 68.012C74.0871 67.9334 74.1723 67.8768 74.2685 67.8507C74.3648 67.8246 74.4669 67.8304 74.5596 67.8672C77.4374 68.5912 80.3152 69.2971 82.8582 70.926C82.9742 70.988 83.0861 71.0575 83.193 71.1341C84.8672 72.4011 84.84 73.5595 83.1025 74.754C81.2282 75.9514 79.1665 76.8263 77.003 77.3422C75.8899 77.6499 74.7496 77.8943 73.6184 78.1567C72.804 78.3467 72.5868 78.6182 72.5777 79.487L69.9624 79.8852C69.8779 79.5918 69.6818 79.3432 69.4163 79.1927C69.1507 79.0421 68.8367 79.0016 68.5416 79.0798C66.7316 79.2698 65.0212 79.5051 63.2475 79.6409C60.6321 79.849 58.0258 79.9757 55.4105 80.0571C52.7951 80.1386 50.1254 80.0571 47.492 79.9938C44.4091 79.8852 41.3261 79.6409 38.2432 79.2608C35.3774 78.909 32.5319 78.4075 29.7184 77.7585C29.5946 77.715 29.4737 77.6636 29.3564 77.6047C29.092 77.2463 28.7884 76.9185 28.4514 76.6273C28.0521 76.2464 27.797 75.739 27.7293 75.1913C27.6617 74.6436 27.7857 74.0894 28.0804 73.6228C28.7318 72.6653 29.6333 71.9048 30.6867 71.4237C31.7365 70.8265 32.8858 70.4554 33.9808 69.9577Z" fill="#0AD11E"/>
<path d="M39.0306 60.3379L41.6369 60.7089C41.6392 60.8582 41.6711 61.0056 41.7307 61.1426C41.7903 61.2795 41.8765 61.4033 41.9842 61.5068C42.0918 61.6103 42.219 61.6914 42.3582 61.7455C42.4974 61.7996 42.6459 61.8256 42.7952 61.822C47.1412 62.2343 51.5089 62.3703 55.872 62.2293C58.0892 62.1478 60.3064 62.0483 62.5236 61.813C66.0416 61.5412 69.5143 60.8485 72.8674 59.7496C72.804 60.7994 72.7497 61.7677 72.6954 62.7451C72.614 63.8853 72.4963 65.0256 72.4692 66.1659C72.4805 66.4515 72.4065 66.734 72.2566 66.9774C72.1067 67.2207 71.8877 67.414 71.6275 67.5324C69.9665 68.3377 68.1942 68.8898 66.3697 69.1704C61.9917 69.9566 57.5507 70.3383 53.1028 70.3106C49.6219 70.3556 46.1419 70.1652 42.6866 69.7405C40.4588 69.5142 38.2546 69.0964 36.0985 68.4916C36.0035 67.7989 35.9581 67.1003 35.9627 66.4012C35.7908 64.5098 35.6279 62.6093 35.5826 60.7089C36.2121 60.788 36.8351 60.912 37.4469 61.0799C38.3247 61.2609 38.6776 61.1161 39.0306 60.3379Z" fill="#F3A32B"/>
<path d="M33.3112 27.768C33.447 30.2205 33.5465 32.6639 33.7365 35.1164C33.8813 37.0349 33.9899 38.8449 34.1528 40.7453C34.3459 43.3576 34.5239 45.976 34.6868 48.6004C34.8135 50.4737 34.9673 52.356 35.0759 54.2293C35.2403 55.6441 35.3188 57.0675 35.3112 58.4917C34.3775 58.3139 33.4668 58.0316 32.5963 57.6501C32.1438 57.4691 32.1709 57.0528 32.1528 56.7451C32.0352 55.08 31.9719 53.4149 31.8542 51.7497C31.6551 48.9353 31.4198 46.1118 31.2207 43.2973C31.1031 41.7227 31.0397 40.139 30.9311 38.5643C30.7773 36.3381 30.5963 34.1119 30.4334 31.8857C30.429 31.1808 30.3837 30.4767 30.2977 29.7771C30.2737 29.6232 30.2994 29.4657 30.371 29.3274C30.4426 29.1891 30.5564 29.0771 30.6958 29.0079C31.485 28.439 32.3713 28.0189 33.3112 27.768Z" fill="#07A017"/>
<path d="M33.9809 69.9577C32.8858 70.4554 31.7365 70.8627 30.6868 71.4147C29.6178 71.8951 28.703 72.6626 28.0443 73.6319C27.7496 74.0985 27.6255 74.6527 27.6932 75.2004C27.7608 75.7481 28.016 76.2555 28.4153 76.6364C28.7523 76.9275 29.0558 77.2554 29.3203 77.6137C26.6544 77.1592 24.1211 76.1242 21.8995 74.5821C20.2525 73.3423 20.3158 72.3468 22.2615 70.9622C24.5317 69.5769 27.0285 68.6027 29.637 68.0844C29.7253 68.0745 29.8129 68.0594 29.8994 68.0392C30.0405 67.9496 30.1982 67.8894 30.3631 67.8624C30.5279 67.8353 30.6966 67.8418 30.8589 67.8815C31.0212 67.9212 31.1737 67.9934 31.3075 68.0935C31.4412 68.1937 31.5533 68.3199 31.637 68.4645C32.2942 69.1344 33.0959 69.6452 33.9809 69.9577Z" fill="#07A017"/>
<path d="M35.5736 60.7089C35.6188 62.6093 35.7817 64.5098 35.9537 66.4012C35.9521 67.1006 36.0004 67.7992 36.0985 68.4916C35.1573 68.2759 34.2562 67.9125 33.4288 67.4147C33.2541 67.3334 33.1047 67.2064 32.9964 67.0471C32.8881 66.8878 32.8248 66.7021 32.8134 66.5098C32.6777 64.3831 32.5329 62.2564 32.3972 60.175C32.3891 60.0545 32.3891 59.9335 32.3972 59.813L35.5736 60.7089Z" fill="#EB9023"/>
</g>
<defs>
<filter id="filter0_i_168_251" x="0" y="0" width="106.572" height="106.572" filterUnits="userSpaceOnUse" color-interpolation-filters="sRGB">
<feFlood flood-opacity="0" result="BackgroundImageFix"/>
<feBlend mode="normal" in="SourceGraphic" in2="BackgroundImageFix" result="shape"/>
<feColorMatrix in="SourceAlpha" type="matrix" values="0 0 0 0 0 0 0 0 0 0 0 0 0 0 0 0 0 0 127 0" result="hardAlpha"/>
<feMorphology radius="3" operator="erode" in="SourceAlpha" result="effect1_innerShadow_168_251"/>
<feOffset dx="1" dy="1"/>
<feGaussianBlur stdDeviation="2.5"/>
<feComposite in2="hardAlpha" operator="arithmetic" k2="-1" k3="1"/>
<feColorMatrix type="matrix" values="0 0 0 0 0 0 0 0 0 0 0 0 0 0 0 0 0 0 0.4 0"/>
<feBlend mode="normal" in2="shape" result="effect1_innerShadow_168_251"/>
</filter>
<clipPath id="clip0_168_251">
<rect width="67.7007" height="58.651" fill="white" transform="translate(18.7683 23.4604)"/>
</clipPath>
</defs>
</svg>
